{
    "asset" : {
        "generator" : "Khronos glTF Blender I/O v1.2.75",
        "version" : "2.0"
    },
    "scene" : 0,
    "scenes" : [
        {
            "name" : "Scene",
            "nodes" : [
                0,
                1,
                2,
                3,
                4,
                5,
                6
            ]
        }
    ],
    "nodes" : [
        {
            "mesh" : 0,
            "name" : "Object_1",
            "scale" : [
                3.2749838829040527,
                3.2749838829040527,
                3.2749838829040527
            ]
        },
        {
            "mesh" : 1,
            "name" : "Object_2",
            "scale" : [
                3.2749838829040527,
                3.2749838829040527,
                3.2749838829040527
            ]
        },
        {
            "mesh" : 2,
            "name" : "Object_3",
            "scale" : [
                3.2749838829040527,
                3.2749838829040527,
                3.2749838829040527
            ]
        },
        {
            "mesh" : 3,
            "name" : "Object_4",
            "scale" : [
                3.2749838829040527,
                3.2749838829040527,
                3.2749838829040527
            ]
        },
        {
            "mesh" : 4,
            "name" : "Object_5",
            "scale" : [
                3.2749838829040527,
                3.2749838829040527,
                3.2749838829040527
            ]
        },
        {
            "name" : "Perspective",
            "rotation" : [
                0.4386751353740692,
                0.4386751353740692,
                0.033306825906038284,
                0.7835935950279236
            ],
            "scale" : [
                5.120219707489014,
                5.120220184326172,
                5.120219707489014
            ],
            "translation" : [
                441.23846435546875,
                835.9053955078125,
                748.5532836914062
            ]
        },
        {
            "name" : "Top",
            "scale" : [
                5.120219707489014,
                5.120219707489014,
                5.120219707489014
            ],
            "translation" : [
                27.082168579101562,
                434.5624694824219,
                -1.3508758544921875
            ]
        }
    ],
    "materials" : [
        {
            "doubleSided" : true,
            "emissiveFactor" : [
                0,
                0,
                0
            ],
            "name" : "Paint (1).001",
            "pbrMetallicRoughness" : {
                "baseColorFactor" : [
                    0.6235294342041016,
                    0.6235294342041016,
                    0.6235294342041016,
                    1
                ],
                "metallicFactor" : 0,
                "roughnessFactor" : 0
            }
        },
        {
            "doubleSided" : true,
            "emissiveFactor" : [
                0,
                0,
                0
            ],
            "name" : "Paint.001",
            "pbrMetallicRoughness" : {
                "baseColorFactor" : [
                    0,
                    0.9450980424880981,
                    1,
                    1
                ],
                "metallicFactor" : 0,
                "roughnessFactor" : 0
            }
        }
    ],
    "meshes" : [
        {
            "name" : "Object_1.001",
            "primitives" : [
                {
                    "attributes" : {
                        "POSITION" : 0,
                        "NORMAL" : 1,
                        "TEXCOORD_0" : 2
                    },
                    "indices" : 3,
                    "material" : 0
                }
            ]
        },
        {
            "name" : "Object_2.001",
            "primitives" : [
                {
                    "attributes" : {
                        "POSITION" : 4,
                        "NORMAL" : 5,
                        "TEXCOORD_0" : 6
                    },
                    "indices" : 7,
                    "material" : 0
                }
            ]
        },
        {
            "name" : "Object_3.001",
            "primitives" : [
                {
                    "attributes" : {
                        "POSITION" : 8,
                        "NORMAL" : 9,
                        "TEXCOORD_0" : 10
                    },
                    "indices" : 11,
                    "material" : 0
                }
            ]
        },
        {
            "name" : "Object_4.001",
            "primitives" : [
                {
                    "attributes" : {
                        "POSITION" : 12,
                        "NORMAL" : 13,
                        "TEXCOORD_0" : 14
                    },
                    "indices" : 15,
                    "material" : 0
                }
            ]
        },
        {
            "name" : "Object_5.001",
            "primitives" : [
                {
                    "attributes" : {
                        "POSITION" : 16,
                        "NORMAL" : 17,
                        "TEXCOORD_0" : 18
                    },
                    "indices" : 19,
                    "material" : 1
                }
            ]
        }
    ],
    "accessors" : [
        {
            "bufferView" : 0,
            "componentType" : 5126,
            "count" : 3864,
            "max" : [
                14.791666984558105,
                29.598766326904297,
                -0.08012711256742477
            ],
            "min" : [
                0.2083333283662796,
                0.2083333283662796,
                -4.91986608505249
            ],
            "type" : "VEC3"
        },
        {
            "bufferView" : 1,
            "componentType" : 5126,
            "count" : 3864,
            "type" : "VEC3"
        },
        {
            "bufferView" : 2,
            "componentType" : 5126,
            "count" : 3864,
            "type" : "VEC2"
        },
        {
            "bufferView" : 3,
            "componentType" : 5123,
            "count" : 16332,
            "type" : "SCALAR"
        },
        {
            "bufferView" : 4,
            "componentType" : 5126,
            "count" : 3568,
            "max" : [
                34.79166793823242,
                14.791666984558105,
                -0.08013394474983215
            ],
            "min" : [
                20.20833396911621,
                -4.5987653732299805,
                -4.919872760772705
            ],
            "type" : "VEC3"
        },
        {
            "bufferView" : 5,
            "componentType" : 5126,
            "count" : 3568,
            "type" : "VEC3"
        },
        {
            "bufferView" : 6,
            "componentType" : 5126,
            "count" : 3568,
            "type" : "VEC2"
        },
        {
            "bufferView" : 7,
            "componentType" : 5123,
            "count" : 15108,
            "type" : "SCALAR"
        },
        {
            "bufferView" : 8,
            "componentType" : 5126,
            "count" : 3565,
            "max" : [
                74.79166412353516,
                14.791666984558105,
                -0.08013394474983215
            ],
            "min" : [
                60.20833206176758,
                -4.5987653732299805,
                -4.919872760772705
            ],
            "type" : "VEC3"
        },
        {
            "bufferView" : 9,
            "componentType" : 5126,
            "count" : 3565,
            "type" : "VEC3"
        },
        {
            "bufferView" : 10,
            "componentType" : 5126,
            "count" : 3565,
            "type" : "VEC2"
        },
        {
            "bufferView" : 11,
            "componentType" : 5123,
            "count" : 15090,
            "type" : "SCALAR"
        },
        {
            "bufferView" : 12,
            "componentType" : 5126,
            "count" : 3867,
            "max" : [
                54.79166793823242,
                29.598766326904297,
                -0.08012711256742477
            ],
            "min" : [
                40.20833206176758,
                0.2083333283662796,
                -4.91986608505249
            ],
            "type" : "VEC3"
        },
        {
            "bufferView" : 13,
            "componentType" : 5126,
            "count" : 3867,
            "type" : "VEC3"
        },
        {
            "bufferView" : 14,
            "componentType" : 5126,
            "count" : 3867,
            "type" : "VEC2"
        },
        {
            "bufferView" : 15,
            "componentType" : 5123,
            "count" : 16350,
            "type" : "SCALAR"
        },
        {
            "bufferView" : 16,
            "componentType" : 5126,
            "count" : 1430,
            "max" : [
                38.85416793823242,
                55.050926208496094,
                4.296875
            ],
            "min" : [
                9.145833015441895,
                24.5,
                -9.296875
            ],
            "type" : "VEC3"
        },
        {
            "bufferView" : 17,
            "componentType" : 5126,
            "count" : 1430,
            "type" : "VEC3"
        },
        {
            "bufferView" : 18,
            "componentType" : 5126,
            "count" : 1430,
            "type" : "VEC2"
        },
        {
            "bufferView" : 19,
            "componentType" : 5123,
            "count" : 6168,
            "type" : "SCALAR"
        }
    ],
    "bufferViews" : [
        {
            "buffer" : 0,
            "byteLength" : 46368,
            "byteOffset" : 0
        },
        {
            "buffer" : 0,
            "byteLength" : 46368,
            "byteOffset" : 46368
        },
        {
            "buffer" : 0,
            "byteLength" : 30912,
            "byteOffset" : 92736
        },
        {
            "buffer" : 0,
            "byteLength" : 32664,
            "byteOffset" : 123648
        },
        {
            "buffer" : 0,
            "byteLength" : 42816,
            "byteOffset" : 156312
        },
        {
            "buffer" : 0,
            "byteLength" : 42816,
            "byteOffset" : 199128
        },
        {
            "buffer" : 0,
            "byteLength" : 28544,
            "byteOffset" : 241944
        },
        {
            "buffer" : 0,
            "byteLength" : 30216,
            "byteOffset" : 270488
        },
        {
            "buffer" : 0,
            "byteLength" : 42780,
            "byteOffset" : 300704
        },
        {
            "buffer" : 0,
            "byteLength" : 42780,
            "byteOffset" : 343484
        },
        {
            "buffer" : 0,
            "byteLength" : 28520,
            "byteOffset" : 386264
        },
        {
            "buffer" : 0,
            "byteLength" : 30180,
            "byteOffset" : 414784
        },
        {
            "buffer" : 0,
            "byteLength" : 46404,
            "byteOffset" : 444964
        },
        {
            "buffer" : 0,
            "byteLength" : 46404,
            "byteOffset" : 491368
        },
        {
            "buffer" : 0,
            "byteLength" : 30936,
            "byteOffset" : 537772
        },
        {
            "buffer" : 0,
            "byteLength" : 32700,
            "byteOffset" : 568708
        },
        {
            "buffer" : 0,
            "byteLength" : 17160,
            "byteOffset" : 601408
        },
        {
            "buffer" : 0,
            "byteLength" : 17160,
            "byteOffset" : 618568
        },
        {
            "buffer" : 0,
            "byteLength" : 11440,
            "byteOffset" : 635728
        },
        {
            "buffer" : 0,
            "byteLength" : 12336,
            "byteOffset" : 647168
        }
    ],
    "buffers" : [
        {
            "byteLength" : 659504,
            "uri" : "data:application/octet-stream;base64,"
        }
    ]
}
